<?xml version="1.0" encoding="utf-8"?>
<!-- Generator: Adobe Illustrator 19.1.1, SVG Export Plug-In . SVG Version: 6.00 Build 0)  -->
<svg version="1.1" id="Calque_1" xmlns="http://www.w3.org/2000/svg" xmlns:xlink="http://www.w3.org/1999/xlink" x="0px" y="0px"
	 viewBox="0 0 595.3 841.9" style="enable-background:new 0 0 595.3 841.9;" xml:space="preserve">
<style type="text/css">
	.st0{fill:#0A9B39;stroke:#0A9B39;stroke-miterlimit:10;}
	.st1{display:none;enable-background:new    ;}
	.st2{display:none;}
	.st3{display:inline;}
	.st4{fill:#010202;}
	.st5{fill:#0A9B39;stroke:#FFFFFF;stroke-width:2;stroke-miterlimit:10;}
</style>
<g>
	<g>
		<path class="st0" d="M349.7,440.3c1.5,0,2.6-5.9,2.6-7.5c0-3.9,0.2-7.7,0.4-11.5c2.8,0.5,5.5,1.6,8.5,1.6c1-3.4,2.3-7.2,2.3-10.7
			c0-2.3-0.8-4,0.4-6.1c0.7-1.4,2.3-2.3,2.9-3.9c0.6-1.6-0.2-4.3,0.7-5.6c1-1.5,4-1.7,5.4-2.6c3.8-2.6,5.5-6.4,10.8-3
			c0.6-1.2,0.6-2.4,0.8-3.7c0.2-1.4,0.5-2.6,0.8-3.8c0.9-4.3,0.4-4-3.4-6.3c-2.9-1.8-3.1-5.3-5.5-6.9c-1.7-1.1-6.2-0.1-8.4-0.2
			c-3-0.1-6.4-1.2-9,0.7c-1.2,0.8-1.2,2.5-2.3,3.4c-1.1,0.8-3.3,1-4.6,1.7c-5.3,2.9-7.2,9.9-14.2,10.3c-0.1,4.1,6.6,6.5-0.8,8.4
			c-4.1,1-8.6,0-12.8,0c-4.5,0-7.4-1.5-9.1-5.5c-1.7-3.8,0.1-7.1-5.9-6.7c-1.9,6.4,2.1,14.4-7.6,16.4c-7,1.5-10.2-2.5-14.5-6
			c-2-1.6-2.8-1.7-5.5-2.1c-3-0.4-3.7-1-6.4-2.1c-3.4-1.4-7.3-0.2-11-0.7c-3.4-0.4-7.5-2.6-10.5-4.2c-3.1-1.7-5.2-4.4-8.3-6
			c-3.1-1.6-6.4-1.4-6.4-5.6c0-2.5,1.8-6.9,2.9-9.3c1-2.1,3.6-3.9,1.2-6.5c-1.3-1.5-4.2-1.2-6-2.1c-7.8-3.6-11.9-10.5-11.9-18.2
			c3.2-0.5,6.3,1.8,7.4-1.8c1.2-3.7-2.8-3.8-3.8-6.6c-2.2-6.3,6.2-9.4,8.6-14.3c0.9-1.8,2.9-6.1,2.4-8.1c-0.6-2.2-6.6-4.7-8.9-5.3
			c-7.5-1.9-13.2,6.3-20,1.1c-2.7-2-5.2-4.5-8.3-5.9c-2.8-1.2-6-2.4-8.8-3.7c-2.4-1.1-4.7-1.1-7.5-1.2c-3.4,0-3.3,0-5.2,1.8
			c-1.6,1.5-1.3,1.9-3.3,3.1c-1.6,0.9-3.7,0.3-4.2,2.7c-0.8,4,6.2,4.8,8.6,7.6c2.3,2.6,2.2,5.9,1.6,9c-0.6,3-1.3,5.5-1.1,8.8
			c0.3,5,3.1,5.5,6.8,8.5c2.2,1.8,5.5,4.3,7.1,6.6c2.6,3.6-1.2,4.1-3.1,6.6c-1.7,2.3-2.3,5.5-3.3,8c-0.8,1.8-1.7,2.7-3,4.2
			c-0.8,1-1.3,0.2-1.9,1.5c-0.5,1,0.5,2.6-0.1,3.6c-0.6,1.2-3.4,2-4.5,2.9c-2.4,1.7-2.1,1.7-2.9,4c-0.9,2.4-0.4,2.5-2.3,4.5
			c-1.2,1.3-2.4,2.3-3.6,3.6c-2.1,2.1-4,6.1-6.8,7.2c-2.6,1-7.8-5.3-11.4-3.7c-1.7,2.2-0.8,8.2-2.5,10.4c-1.4,1.7-3,1.2-2.2,3.5
			c0.2,0.6,2.8,2,3.3,2.5c2.4,2.4,1.3,4.2,2.3,7.3c1,3,3.9,4.3,4.8,7.3c0.5,1.6,1.8,5.5,0.1,7.1c-1,0.9-7.1,1.3-8.4,1.3
			c-4.9,0.2-15-0.8-13.5,6.5c0.9,1.5,10.6,7.4,13.9,6.8c1.8-0.3,3.3-1.5,5.2-1.3c-2.8,4.8-7.2,5.1-12.7,5.3c-0.8,3.7,4.6,8,7,10.5
			c3,3.2,6.5,6.3,11.4,5.6c5-0.7,8-3.5,7.9-8.1c-0.1-3.4-1.3-8.5,4.4-8c0.5,2.6-0.9,5.6-0.2,8.4c0.8,3.4,4.1,6.1,4.1,9.8
			c0.1,3.3-1.8,6.4-1.9,9.9c0,3.9,2.3,6.6,3,10.1c1.5,7.2,1.4,14.6,3.3,21.7c2.1,7.6,5.5,14.1,9.2,21.1c3.2,6.1,3.2,12.1,6.7,17.9
			c3.7,6.1,7.1,11.8,10.2,18.5c2,4.2,2.7,8.9,5.3,12.7c4,0.2,6.5-0.5,9.2-3.5c1-1.1,1.4-3.7,2.3-4.4c1.3-1.1,3-0.7,4.9-0.8
			c0.4-1.9-1.4-2-1.5-3.4c-0.1-2.6,1.2-3,3-4.1c3.1-1.8,4.5-1.6,4.9-5.4c0.5-5.4-2.1-11.5,1.2-16.1c2-2.7,3.6-3.5,3-7.4
			c-0.5-2.7-2.1-5.4-2.7-8.1c-1-4.7-0.7-13.9,5.2-15.7c1.1,6.4,5.1-3.1,5.8-3.6c1.5-1,3.8,0.3,5.4-0.6c1.3-0.8,2.5-4,3.2-5.3
			c1.4-2.6,0.2-1.8,3-3.2c1.6-0.8,3.4-1,5.1-2.1c3.4-2.3,6.7-3.3,7.4-7.4c0.6-3.9,0-5.5,3.4-8.1c3-2.4,5.5-3.6,8.9-4.8
			c2.8-1,7.1-2.6,8.8-5c1.8-2.5,0.3-5.4,1-8.4c1.2-5.1,5.3-4.8,9.3-7.1c3.1-1.8,7.7,2.5,10.3,2c1.2-3.1-1.5-4.9-2.3-7.9
			c-0.7-3,0.4-6.2-0.6-9.2c-0.9-2.5-1.3-5-2.2-7.4c-1.2-2.9-4.1-4.8-3.7-8.2c2.7-0.5,8.6-0.6,6.7-4.7c-0.9-1.9-3.3-2-4.2-4.1
			c-0.5-1.3-0.4-3-0.3-4.6c4.8,0.5,8.2,3.5,13.4,3.9c3.5,4.7,0.1,8,8.6,8.7c1.7,0.1,10.9-1.3,12.5,1.4c1.9,3.2-2.7,4-4.5,5.3
			c-2.5,1.9-5.8,5.9-5.3,9.1c0.7,4.6,5.7,4.6,6.1-0.3c9.2-2.5,3.6,14.8,10.2,13.3"/>
		<path class="st0" d="M349.9,522c-0.3,2,0.7,3.9,0.3,5.9c-1.2-0.5-1.2,0.2-2.1-1c-0.2,3,1.6,4.6,1,7.7c-0.5,2.1-1.5,3.8-1.4,6.3
			c2.3-0.8,0.9-3.2,1.4-5.1c0.6-2.1,1.8-2.3,1.9-5c0.1-2.2,1.5-7.6,0-8.8"/>
		<path class="st0" d="M349.5,560.2c-0.3,0.7-0.7,1.3-0.7,2.1c0.5-0.2,0.7-0.6,1.1-1"/>
		<path class="st0" d="M346.9,546.2c-0.8,0.5-1.1,1.2-0.7,2.4c1.6-0.4,1.9-1.2,0.7-2"/>
		<path class="st0" d="M355.5,570.1c0.4,0.9,1.1,1.3,0.7,2.4c-0.8-0.8-0.9-2.1-0.7-3.5"/>
	</g>
	<g class="st1">
	</g>
	<g class="st1">
	</g>
	<g class="st2">
		<g class="st3">
			<path class="st4" d="M220,425.4c3.2,0,3.2-5,0-5C216.7,420.4,216.7,425.4,220,425.4L220,425.4z"/>
		</g>
	</g>
	<g class="st2">
		<g class="st3">
			<path class="st4" d="M224.7,416c3.2,0,3.2-5,0-5C221.4,411,221.4,416,224.7,416L224.7,416z"/>
		</g>
	</g>
	<g>
		<path class="st5" d="M270.4,466.2c0.4,2.5,0.7,7.5,2.2,12.2c-4.7,2.5-7.9,7.5-7.9,13.3c0,3.6,1.4,7.2,3.6,9.7
			c-11.9,10.8-18.3,34.8-18.3,44.2c0,15.1,13.3,27.3,30.2,27.3c16.9,0,30.2-12.2,30.2-27.3c0-9.3-6.5-33.4-18.3-44.2
			c2.2-2.5,3.6-6.1,3.6-9.7c0-5.7-3.2-10.8-7.9-13.3c1.4-4.7,2.2-9.7,2.2-12.2c62.9-10.1,109.5-116.4,109.5-170.6
			c0-2.9-2.5-5.4-5.4-5.4s-5.4,2.5-5.4,5.4c0,28-13.3,68.6-32.7,101.3c-12.2,20.8-36.6,54.2-68.6,58.9c-1.8-2.5-4.7-3.6-7.2-3.6
			s-5.4,1.1-7.2,3.6c-31.6-4.7-56.4-38.1-68.6-58.9c-19.4-32.7-32.7-73.3-32.7-101.3c0-2.9-2.5-5.4-5.4-5.4s-5.4,2.5-5.4,5.4
			C160.9,350.1,207.6,456.1,270.4,466.2z M280.1,487.3c2.5,0,4.7,2.2,4.7,4.7c0,2.5-2.2,4.7-4.7,4.7s-4.7-2.2-4.7-4.7
			C275.4,489.5,277.6,487.3,280.1,487.3z M280.1,507.5c8.3,0,19.4,26.6,19.4,38.4c0,9-8.6,16.5-19.4,16.5s-19.4-7.2-19.4-16.5
			C260.7,534,271.8,507.5,280.1,507.5z"/>
	</g>
</g>
</svg>
