<svg xmlns="http://www.w3.org/2000/svg" xmlns:xlink="http://www.w3.org/1999/xlink" version="1.1" x="0px" y="0px" viewBox="-255 347 100 125" style="enable-background:new -255 347 100 100;" xml:space="preserve"><style type="text/css">
	.st0{fill:none;stroke:#000000;stroke-miterlimit:10;}
	.st1{fill:#FFFFFF;}
</style><path class="st0" d="M-458.5,745.8"/><path class="st1" d="M-184,430.1c-0.1-0.4-0.8-0.7-0.2-1.2c0.3-0.2,0.5-0.1,0.7,0.2C-183.3,429.4-183.5,429.8-184,430.1z"/><path class="st1" d="M-185.6,431.6c-0.2-0.3-0.4-0.5-0.4-0.7c0.1-0.2,0.3-0.5,0.5-0.6c0.4,0,0.5,0.3,0.5,0.6  C-185.1,431.1-185.3,431.3-185.6,431.6z"/><path class="st1" d="M-184.8,430.7c-0.1-0.4-0.6-0.7-0.1-1.1c0.1-0.1,0.4,0.1,0.5,0.2C-184.1,430.2-184.3,430.5-184.8,430.7z"/><path class="st1" d="M-182.9,428.8c0.2-0.2,0.3-0.4,0.4-0.4c0.1-0.1,0.3-0.1,0.4-0.1c0.1,0.1,0.2,0.3,0.3,0.4  c-0.1,0.1-0.3,0.2-0.4,0.2C-182.5,429-182.7,428.9-182.9,428.8z"/><path class="st1" d="M-186.4,431c0.2,0.3,0.4,0.5,0.4,0.7c0,0.1-0.2,0.3-0.3,0.4c-0.1-0.2-0.3-0.4-0.4-0.6  C-186.7,431.4-186.5,431.3-186.4,431z"/><path d="M-168.9,412c-1.5-7.7-5.4-14.2-10.1-20.4c-2.6-3.4-5.9-5.1-10-6c-9.1-1.9-18.3-1.7-27.4-0.4c-6,0.9-11.1,2.9-14.3,8.6  c-4.8,8.4-9.5,16.7-10.7,26.5c-1,8.1,2.3,17,11.7,20.5c7.4,2.8,15.1,3.5,22.9,3c5.1-0.3,7.7-3,7.6-7.2c-0.1-4.1-2.8-6.3-8-6.5  c-4.3-0.2-8.7-0.2-13-0.5c-3.2-0.2-6.3-0.9-7.9-4.6c1.4-0.2,2.5-0.4,3.6-0.6c2.1-0.4,4.3-0.7,6.4-1.2c1.5-0.3,2.2-1.1,1.5-2.8  c-0.9-2.3-1.6-4.6-2.1-7c-0.4-1.9-0.2-3.9,1.9-4.9c2-1,3.9,0,5.2,1.3c2,2,3.8,4.1,5.3,6.4c3.2,4.7,7.2,7.9,13.4,7.3  c0.2,0,0.4,0.2,1,0.4c-1.1,1.1-2,1.9-2.8,2.8c-2.7,3.2-2.2,7.2,1.4,8.9c1.8,0.9,4.2,1.3,6.2,1.1c6.5-0.7,10.5-5.1,14.7-9.5  C-168.2,422.8-167.9,417.5-168.9,412z M-193.1,421.8c-6.8,0-11.2-4.1-11.2-10.4c0-6.8,4.9-11.4,12.1-11.4c6.1,0,10,3.9,10,10.1  C-182.2,416.8-186.8,421.8-193.1,421.8z M-204,380.3c10.3,0,15.6-7.9,14.9-14.6c0.5-8.1-5.9-15.3-16.2-15.6  c-8.9-0.2-15.7,6.5-15.7,15.2C-220.9,374.3-213.4,380.3-204,380.3z"/><text x="-255" y="462" fill="#000000" font-size="5px" font-weight="bold" font-family="'Helvetica Neue', Helvetica, Arial-Unicode, Arial, Sans-serif">Created by DewDrops</text><text x="-255" y="467" fill="#000000" font-size="5px" font-weight="bold" font-family="'Helvetica Neue', Helvetica, Arial-Unicode, Arial, Sans-serif">from the Noun Project</text></svg>