<svg xmlns="http://www.w3.org/2000/svg" xmlns:xlink="http://www.w3.org/1999/xlink" version="1.0" x="0px" y="0px" viewBox="0 0 100 125" enable-background="new 0 0 100 100" xml:space="preserve"><g><g><path d="M39.25,56.25h-15l-6,7.5v16.5h28.5V63.9125977L39.25,56.25z M31.75,71.25h-9v-4.5h9V71.25z M40.75,75.75h-6v-7.5h6V75.75z    "/><path d="M70.75,42.75h-12l-9,9v21.0864258L82.75,74.25v-25.5L70.75,42.75z M60.25,66.75h-6v-7.5h6V66.75z M78.25,60.75h-13.5v-7.5    h13.5V60.75z"/><path d="M55.75,18.75H39.4033203L31.75,26.25v25.5h12l10.5-13.5h13.5v-10.5L55.75,18.75z M43.75,41.25h-6v-9h6V41.25z     M48.25,32.25v-6h6l1.5,6H48.25z"/></g></g><text x="0" y="115" fill="#000000" font-size="5px" font-weight="bold" font-family="'Helvetica Neue', Helvetica, Arial-Unicode, Arial, Sans-serif">Created by Yu luck</text><text x="0" y="120" fill="#000000" font-size="5px" font-weight="bold" font-family="'Helvetica Neue', Helvetica, Arial-Unicode, Arial, Sans-serif">from the Noun Project</text></svg>